<svg width="76" height="90" viewBox="0 0 76 90" fill="none" xmlns="http://www.w3.org/2000/svg">
<path d="M41.0627 39.073C35.4733 35.1592 27.7693 36.5176 23.8555 42.1071L8.17676 64.4987C4.36665 69.9401 5.68908 77.4399 11.1305 81.2501" stroke="white" stroke-width="12"/>
<path d="M34.5956 50.2071C40.0818 54.0485 47.6433 52.7152 51.4848 47.229L67.4255 24.4633C71.1633 19.1252 69.866 11.7678 64.5279 8.03" stroke="#4988C4" stroke-width="12"/>
<path d="M65.0627 8.23596C59.4733 4.32217 51.7693 5.68057 47.8555 11.2701L32.1768 33.6617C28.3666 39.1031 29.6891 46.6029 35.1305 50.413" stroke="#4988C4" stroke-width="12"/>
<path d="M11.1911 81.114C16.6772 84.9555 24.2388 83.6222 28.0803 78.136L44.021 55.3703C47.7588 50.0322 46.4614 42.6748 41.1233 38.937" stroke="#FFFCFC" stroke-width="12"/>
</svg>
